<svg width="210" height="236" viewBox="0 0 210 236" fill="none" xmlns="http://www.w3.org/2000/svg">
<path d="M82.6857 18.7268C81.663 28.4387 89.0741 40.6638 92.9077 45.5623C26.9746 32.1953 3.67693 37.4368 0.269106 41.7284C-4.33025 63.7081 51.1672 63.6655 79.4914 60.8967C86.136 73.1642 82.2598 89.0104 79.4914 95.3994C55.4692 94.8884 54.1492 117.337 56.4918 128.625C60.0693 165.939 75.0191 182.509 82.0469 186.129C95.3355 187.663 97.38 177.398 96.7413 172.072L87.7967 139.487C94.8245 139.487 109.008 139.742 109.519 140.765C119.23 154.055 115.269 177.398 112.074 187.408C95.2077 232.9 116.121 238.31 128.686 235.328C141.974 214.882 142.315 168.878 140.824 148.432C134.691 125.941 134.861 92.6307 135.713 78.7874C135.713 57.3186 153.602 56.2112 162.546 58.3409C203.949 72.6532 211.315 61.7486 209.825 54.5073C209.825 45.8177 188.953 43.6453 178.518 43.6453L124.852 45.5623L125.491 21.2825C125.491 1.85868 111.436 -0.867484 104.408 0.197423C89.0748 0.197423 83.5373 12.5503 82.6857 18.7268Z" fill="#479EDD"/>
</svg>
