<svg viewBox="0 0 31 31" fill="none" xmlns="http://www.w3.org/2000/svg">
<path d="M7.74992 15.5001C7.7562 14.8205 8.03001 14.1708 8.512 13.6917L14.0533 8.13757C14.2953 7.897 14.6226 7.76196 14.9639 7.76196C15.3051 7.76196 15.6325 7.897 15.8745 8.13757C15.9956 8.25765 16.0917 8.40051 16.1572 8.55791C16.2228 8.71531 16.2566 8.88414 16.2566 9.05465C16.2566 9.22517 16.2228 9.394 16.1572 9.5514C16.0917 9.7088 15.9956 9.85166 15.8745 9.97174L11.6249 14.2084H24.5416C24.8842 14.2084 25.2127 14.3445 25.4549 14.5867C25.6972 14.829 25.8333 15.1575 25.8333 15.5001C25.8333 15.8426 25.6972 16.1712 25.4549 16.4134C25.2127 16.6557 24.8842 16.7917 24.5416 16.7917H11.6249L15.8745 21.0413C16.1177 21.2828 16.2551 21.6111 16.2563 21.9538C16.2575 22.2966 16.1225 22.6258 15.881 22.869C15.6394 23.1123 15.3112 23.2496 14.9684 23.2508C14.6257 23.252 14.2965 23.117 14.0533 22.8755L8.512 17.3213C8.02687 16.8391 7.7528 16.1841 7.74992 15.5001Z" fill="white"/>
</svg>
