<svg viewBox="0 0 14 14" fill="none" xmlns="http://www.w3.org/2000/svg">
<g clip-path="url(#clip0_189_401)">
<path d="M13.9732 3.23291L9.06267 8.14341C8.51513 8.68956 7.77335 8.99627 7 8.99627C6.22665 8.99627 5.48487 8.68956 4.93733 8.14341L0.0268333 3.23291C0.0186667 3.32508 0 3.40849 0 3.50008V10.5001C0.00092625 11.2733 0.308514 12.0147 0.855295 12.5614C1.40208 13.1082 2.1434 13.4158 2.91667 13.4167H11.0833C11.8566 13.4158 12.5979 13.1082 13.1447 12.5614C13.6915 12.0147 13.9991 11.2733 14 10.5001V3.50008C14 3.40849 13.9813 3.32508 13.9732 3.23291Z" fill="#04ADF5"/>
<path d="M8.23792 7.31842L13.5661 1.98967C13.308 1.56169 12.9439 1.20744 12.5091 0.961095C12.0742 0.714749 11.5832 0.584617 11.0834 0.583252H2.91675C2.41696 0.584617 1.92596 0.714749 1.4911 0.961095C1.05624 1.20744 0.692195 1.56169 0.434082 1.98967L5.76225 7.31842C6.091 7.64585 6.53609 7.82969 7.00008 7.82969C7.46407 7.82969 7.90917 7.64585 8.23792 7.31842Z" fill="#04ADF5"/>
</g>
<defs>
<clipPath id="clip0_189_401">
<rect width="14" height="14" fill="white"/>
</clipPath>
</defs>
</svg>
