<svg width="24" height="24" viewBox="0 0 24 24" fill="none" xmlns="http://www.w3.org/2000/svg">
<path d="M9.0001 0.75C9.0001 0.551088 9.07911 0.360322 9.21977 0.21967C9.36042 0.0790176 9.55118 0 9.7501 0L14.2501 0C14.449 0 14.6398 0.0790176 14.7804 0.21967C14.9211 0.360322 15.0001 0.551088 15.0001 0.75C15.0001 0.948912 14.9211 1.13968 14.7804 1.28033C14.6398 1.42098 14.449 1.5 14.2501 1.5H13.5001V3.105C15.5428 3.39986 17.4533 4.2901 18.993 5.6645C20.5327 7.0389 21.6333 8.83652 22.1572 10.8328C22.6812 12.829 22.6053 14.9354 21.939 16.8888C21.2728 18.8422 20.0457 20.556 18.4111 21.816L19.3126 22.719C19.4534 22.8596 19.5326 23.0504 19.5328 23.2495C19.5329 23.4485 19.454 23.6394 19.3133 23.7803C19.1727 23.9211 18.9819 24.0003 18.7829 24.0004C18.5839 24.0006 18.3929 23.9216 18.2521 23.781L17.1331 22.662C15.5656 23.5419 13.7977 24.0027 12.0001 24C10.2025 24.0027 8.43462 23.5419 6.8671 22.662L5.7481 23.781C5.67837 23.8506 5.5956 23.9059 5.50453 23.9435C5.41346 23.9811 5.31586 24.0005 5.21732 24.0004C5.11877 24.0003 5.0212 23.9809 4.93018 23.9431C4.83917 23.9053 4.75648 23.85 4.68685 23.7803C4.61721 23.7105 4.562 23.6278 4.52435 23.5367C4.4867 23.4456 4.46736 23.348 4.46743 23.2495C4.46757 23.0504 4.54677 22.8596 4.6876 22.719L5.5906 21.816C3.95603 20.5561 2.72893 18.8424 2.06261 16.8892C1.39628 14.9359 1.32025 12.8296 1.84403 10.8334C2.36782 8.83714 3.46818 7.0395 5.00766 5.66501C6.54715 4.29051 8.45751 3.4001 10.5001 3.105V1.5H9.7501C9.55118 1.5 9.36042 1.42098 9.21977 1.28033C9.07911 1.13968 9.0001 0.948912 9.0001 0.75V0.75ZM12.7501 8.25C12.7501 8.05109 12.6711 7.86032 12.5304 7.71967C12.3898 7.57902 12.199 7.5 12.0001 7.5C11.8012 7.5 11.6104 7.57902 11.4698 7.71967C11.3291 7.86032 11.2501 8.05109 11.2501 8.25V13.293L9.1066 16.863C9.00416 17.0337 8.97371 17.238 9.02195 17.4312C9.0702 17.6243 9.19318 17.7903 9.36385 17.8928C9.53451 17.9952 9.73888 18.0256 9.932 17.9774C10.1251 17.9291 10.2912 17.8062 10.3936 17.6355L12.6436 13.8855C12.7133 13.769 12.7501 13.6358 12.7501 13.5V8.25ZM1.2901 8.0805C0.901987 7.7429 0.587481 7.32907 0.36614 6.86473C0.144799 6.40039 0.0213545 5.89548 0.00348442 5.3814C-0.0143857 4.86732 0.0737003 4.35505 0.262265 3.87647C0.450829 3.39788 0.735839 2.96321 1.09957 2.59947C1.4633 2.23574 1.89798 1.95073 2.37656 1.76217C2.85515 1.5736 3.36741 1.48552 3.8815 1.50339C4.39558 1.52126 4.90049 1.6447 5.36483 1.86604C5.82917 2.08738 6.243 2.40189 6.5806 2.79C4.30052 3.94762 2.44772 5.80042 1.2901 8.0805V8.0805ZM17.4196 2.79C17.7572 2.40189 18.171 2.08738 18.6354 1.86604C19.0997 1.6447 19.6046 1.52126 20.1187 1.50339C20.6328 1.48552 21.145 1.5736 21.6236 1.76217C22.1022 1.95073 22.5369 2.23574 22.9006 2.59947C23.2644 2.96321 23.5494 3.39788 23.7379 3.87647C23.9265 4.35505 24.0146 4.86732 23.9967 5.3814C23.9788 5.89548 23.8554 6.40039 23.6341 6.86473C23.4127 7.32907 23.0982 7.7429 22.7101 8.0805C21.5525 5.80042 19.6997 3.94762 17.4196 2.79V2.79Z" fill="#04ADF5"/>
</svg>
