<svg viewBox="0 0 14 13" fill="none" xmlns="http://www.w3.org/2000/svg">
<path d="M13.5723 4.90033C13.0459 4.03831 12.3819 3.26833 11.6066 2.62093L13.2393 0.988212C13.4631 0.75656 13.4566 0.38742 13.225 0.163694C12.999 -0.0545647 12.6408 -0.0545647 12.4148 0.163694L10.6392 1.94161C9.53851 1.28784 8.28016 0.947075 6.99999 0.95615C3.3899 0.95615 1.33266 3.42741 0.427675 4.90036C-0.142558 5.82268 -0.142558 6.98808 0.427675 7.91042C0.954093 8.77244 1.61811 9.54243 2.39337 10.1898L0.760653 11.8225C0.529001 12.0463 0.522578 12.4154 0.746303 12.6471C0.970029 12.8787 1.3392 12.8851 1.57082 12.6614C1.57569 12.6567 1.58047 12.6519 1.58517 12.6471L3.36484 10.8674C4.46417 11.5211 5.72102 11.8624 6.99999 11.8546C10.6101 11.8546 12.6673 9.38335 13.5723 7.91039C14.1426 6.98808 14.1426 5.82268 13.5723 4.90033ZM3.50131 6.40538C3.498 4.47631 5.05911 2.90982 6.98818 2.90651C7.71807 2.90525 8.43003 3.1327 9.02401 3.55686L8.17733 4.40355C7.82188 4.1892 7.41507 4.07494 7.00001 4.07292C5.71184 4.07292 4.66755 5.1172 4.66755 6.40538C4.66958 6.82044 4.78383 7.22724 4.99818 7.58269L4.1515 8.42938C3.7287 7.83916 3.50134 7.13139 3.50131 6.40538ZM7.00001 9.90408C6.27401 9.90405 5.56623 9.67669 4.97601 9.25389L5.8227 8.40721C6.17815 8.62156 6.58495 8.73581 7.00001 8.73784C8.28819 8.73784 9.33247 7.69356 9.33247 6.40538C9.33045 5.99032 9.21619 5.58351 9.00184 5.22806L9.84853 4.38138C10.9696 5.95126 10.6057 8.1327 9.03585 9.25373C8.44186 9.67789 7.7299 9.90534 7.00001 9.90408Z" fill="#04ADF5"/>
</svg>
