<svg viewBox="0 0 14 14" fill="none" xmlns="http://www.w3.org/2000/svg">
<path d="M11.0833 2.54545H9.33333V1.90909C9.33333 1.40277 9.14896 0.917184 8.82077 0.55916C8.49258 0.201136 8.04746 0 7.58333 0H6.41667C5.95254 0 5.50742 0.201136 5.17923 0.55916C4.85104 0.917184 4.66667 1.40277 4.66667 1.90909V2.54545H2.91667C2.1434 2.54646 1.40208 2.88202 0.855295 3.4785C0.308514 4.07499 0.00092625 4.88371 0 5.72727L0 10.8182C0.00092625 11.6617 0.308514 12.4705 0.855295 13.067C1.40208 13.6634 2.1434 13.999 2.91667 14H11.0833C11.8566 13.999 12.5979 13.6634 13.1447 13.067C13.6915 12.4705 13.9991 11.6617 14 10.8182V5.72727C13.9991 4.88371 13.6915 4.07499 13.1447 3.4785C12.5979 2.88202 11.8566 2.54646 11.0833 2.54545ZM5.83333 1.90909C5.83333 1.74032 5.89479 1.57846 6.00419 1.45911C6.11358 1.33977 6.26196 1.27273 6.41667 1.27273H7.58333C7.73804 1.27273 7.88642 1.33977 7.99581 1.45911C8.10521 1.57846 8.16667 1.74032 8.16667 1.90909V2.54545H5.83333V1.90909ZM8.75 8.90909H7.58333V10.1818C7.58333 10.3506 7.52187 10.5125 7.41248 10.6318C7.30308 10.7511 7.15471 10.8182 7 10.8182C6.84529 10.8182 6.69692 10.7511 6.58752 10.6318C6.47812 10.5125 6.41667 10.3506 6.41667 10.1818V8.90909H5.25C5.09529 8.90909 4.94692 8.84205 4.83752 8.7227C4.72812 8.60336 4.66667 8.4415 4.66667 8.27273C4.66667 8.10395 4.72812 7.94209 4.83752 7.82275C4.94692 7.70341 5.09529 7.63636 5.25 7.63636H6.41667V6.36364C6.41667 6.19486 6.47812 6.033 6.58752 5.91366C6.69692 5.79432 6.84529 5.72727 7 5.72727C7.15471 5.72727 7.30308 5.79432 7.41248 5.91366C7.52187 6.033 7.58333 6.19486 7.58333 6.36364V7.63636H8.75C8.90471 7.63636 9.05308 7.70341 9.16248 7.82275C9.27187 7.94209 9.33333 8.10395 9.33333 8.27273C9.33333 8.4415 9.27187 8.60336 9.16248 8.7227C9.05308 8.84205 8.90471 8.90909 8.75 8.90909Z" fill="#04ADF5"/>
</svg>
