<svg viewBox="0 0 48 54" fill="none" xmlns="http://www.w3.org/2000/svg">
<path d="M18.8435 4.26231C18.6104 6.47278 20.2994 9.25527 21.173 10.3702C6.14733 7.3278 0.837947 8.5208 0.0613274 9.49759C-0.986834 14.5003 11.6606 14.4906 18.1156 13.8604C19.6298 16.6525 18.7465 20.2592 18.1156 21.7134C12.641 21.597 12.3402 26.7063 12.8741 29.2756C13.6894 37.7685 17.0963 41.5399 18.6979 42.3639C21.7263 42.713 22.1922 40.3765 22.0467 39.1645L20.0083 31.7478C21.6099 31.7478 24.8422 31.806 24.9586 32.0387C27.1717 35.0635 26.2689 40.3765 25.541 42.6549C21.6972 53.0092 26.4632 54.2404 29.3266 53.5618C32.3549 48.9082 32.4326 38.4374 32.0929 33.7838C30.6951 28.6648 30.7339 21.0832 30.9282 17.9324C30.9282 13.046 35.0049 12.7939 37.0431 13.2787C46.4785 16.5362 48.1573 14.0543 47.8176 12.4061C47.8176 10.4283 43.0612 9.93387 40.6831 9.93387L28.4529 10.3702L28.5985 4.84401C28.5985 0.423044 25.3954 -0.197443 23.7938 0.0449345C20.2995 0.0449345 19.0376 2.85652 18.8435 4.26231Z" fill="white"/>
</svg>
