<svg viewBox="0 0 28 28" fill="none" xmlns="http://www.w3.org/2000/svg">
<circle cx="14" cy="14" r="14" fill="#04ADF5"/>
<path d="M20.3741 13.8746C20.2081 13.8746 20.0489 13.8088 19.9315 13.6916C19.8141 13.5744 19.7482 13.4155 19.7482 13.2497C19.7469 11.9244 19.2189 10.6536 18.2801 9.71644C17.3414 8.77924 16.0685 8.25215 14.7409 8.25083C14.5749 8.25083 14.4157 8.18499 14.2983 8.06781C14.1809 7.95062 14.115 7.79169 14.115 7.62596C14.115 7.46024 14.1809 7.3013 14.2983 7.18412C14.4157 7.06693 14.5749 7.0011 14.7409 7.0011C16.4004 7.00292 17.9913 7.66184 19.1647 8.83329C20.3382 10.0047 20.9982 11.5931 21 13.2497C21 13.4155 20.9341 13.5744 20.8167 13.6916C20.6993 13.8088 20.5401 13.8746 20.3741 13.8746ZM18.4964 13.2497C18.4964 12.2554 18.1007 11.3018 17.3964 10.5987C16.6921 9.89556 15.7369 9.50055 14.7409 9.50055C14.5749 9.50055 14.4157 9.56639 14.2983 9.68357C14.1809 9.80076 14.115 9.95969 14.115 10.1254C14.115 10.2911 14.1809 10.4501 14.2983 10.5673C14.4157 10.6844 14.5749 10.7503 14.7409 10.7503C15.4049 10.7503 16.0417 11.0136 16.5112 11.4824C16.9808 11.9511 17.2445 12.5868 17.2445 13.2497C17.2445 13.4155 17.3105 13.5744 17.4279 13.6916C17.5452 13.8088 17.7045 13.8746 17.8705 13.8746C18.0365 13.8746 18.1957 13.8088 18.313 13.6916C18.4304 13.5744 18.4964 13.4155 18.4964 13.2497ZM19.8627 20.8506L20.4323 20.1951C20.7948 19.832 20.9984 19.3402 20.9984 18.8276C20.9984 18.3149 20.7948 17.8232 20.4323 17.4601C20.4129 17.4407 18.907 16.2841 18.907 16.2841C18.5455 15.9406 18.0654 15.7494 17.5664 15.7501C17.0675 15.7508 16.5879 15.9433 16.2274 16.2878L15.0345 17.2914C14.0607 16.889 13.1761 16.2986 12.4315 15.5539C11.6869 14.8093 11.097 13.9252 10.6957 12.9523L11.6971 11.7651C12.0424 11.4052 12.2356 10.9264 12.2364 10.4281C12.2372 9.92979 12.0456 9.45033 11.7015 9.08939C11.7015 9.08939 10.5417 7.58785 10.5223 7.56848C10.1652 7.20965 9.68098 7.00549 9.17434 7.00011C8.6677 6.99473 8.17927 7.18857 7.8146 7.53973L7.0948 8.1646C2.84238 13.0898 11.9994 22.1609 17.0956 21.9978C17.6102 22.0008 18.1202 21.9008 18.5954 21.7038C19.0707 21.5067 19.5016 21.2166 19.8627 20.8506Z" fill="white"/>
</svg>
