<svg viewBox="0 0 14 14" fill="none" xmlns="http://www.w3.org/2000/svg">
<g clip-path="url(#clip0_189_408)">
<path d="M13.4166 6.41672C13.2619 6.41672 13.1135 6.35526 13.0041 6.24586C12.8947 6.13647 12.8333 5.98809 12.8333 5.83338C12.832 4.59609 12.34 3.40982 11.4651 2.53492C10.5902 1.66001 9.40389 1.16795 8.16659 1.16672C8.01189 1.16672 7.86351 1.10526 7.75412 0.995862C7.64472 0.886466 7.58326 0.738093 7.58326 0.583383C7.58326 0.428674 7.64472 0.280301 7.75412 0.170904C7.86351 0.0615081 8.01189 4.99091e-05 8.16659 4.99091e-05C9.71317 0.00174834 11.1959 0.616875 12.2895 1.71047C13.3831 2.80406 13.9982 4.28681 13.9999 5.83338C13.9999 5.98809 13.9385 6.13647 13.8291 6.24586C13.7197 6.35526 13.5713 6.41672 13.4166 6.41672ZM11.6666 5.83338C11.6666 4.90513 11.2978 4.01489 10.6415 3.35851C9.98509 2.70213 9.09485 2.33338 8.16659 2.33338C8.01189 2.33338 7.86351 2.39484 7.75412 2.50424C7.64472 2.61363 7.58326 2.76201 7.58326 2.91672C7.58326 3.07143 7.64472 3.2198 7.75412 3.3292C7.86351 3.43859 8.01189 3.50005 8.16659 3.50005C8.78543 3.50005 9.37893 3.74588 9.81651 4.18347C10.2541 4.62105 10.4999 5.21455 10.4999 5.83338C10.4999 5.98809 10.5614 6.13647 10.6708 6.24586C10.7802 6.35526 10.9286 6.41672 11.0833 6.41672C11.238 6.41672 11.3863 6.35526 11.4957 6.24586C11.6051 6.13647 11.6666 5.98809 11.6666 5.83338ZM12.94 12.9291L13.4708 12.3171C13.8087 11.9782 13.9984 11.5191 13.9984 11.0405C13.9984 10.5619 13.8087 10.1028 13.4708 9.76388C13.4528 9.7458 12.0493 8.66605 12.0493 8.66605C11.7124 8.34541 11.265 8.16687 10.7999 8.16752C10.3349 8.16817 9.88796 8.34797 9.55201 8.66955L8.44018 9.60638C7.53261 9.23077 6.70819 8.67957 6.01426 7.98444C5.32033 7.2893 4.77055 6.46393 4.39651 5.55572L5.32984 4.44738C5.65168 4.11148 5.83168 3.66448 5.83245 3.19928C5.83321 2.73409 5.65466 2.2865 5.33393 1.94955C5.33393 1.94955 4.25301 0.5478 4.23493 0.529717C3.90211 0.194736 3.45086 0.00414608 2.97868 -0.000874801C2.5065 -0.00589569 2.0513 0.175056 1.71143 0.502883L1.04059 1.08622C-2.92257 5.68405 5.61159 14.1523 10.3611 14.0001C10.8407 14.0028 11.316 13.9095 11.7589 13.7255C12.2019 13.5416 12.6035 13.2708 12.94 12.9291Z" fill="#04ADF5"/>
</g>
<defs>
<clipPath id="clip0_189_408">
<rect width="14" height="14" fill="white"/>
</clipPath>
</defs>
</svg>
