<svg width="22" height="22" viewBox="0 0 22 22" fill="none" xmlns="http://www.w3.org/2000/svg">
<g clip-path="url(#clip0_7_759)">
<path d="M12.2676 10.1029L12.2301 1.75986C12.2277 1.24195 11.806 0.824008 11.2881 0.826389C10.7701 0.82875 10.3522 1.25051 10.3546 1.76841L10.393 10.1114L2.05006 10.149C1.53214 10.1513 1.1142 10.5731 1.11659 11.091C1.11897 11.6089 1.54071 12.0269 2.0586 12.0245L10.4016 11.986L10.4392 20.329C10.4415 20.8469 10.8633 21.2649 11.3812 21.2625C11.8991 21.2601 12.3171 20.8384 12.3147 20.3205L12.2762 11.9775L20.6192 11.9399C21.1371 11.9375 21.555 11.5158 21.5527 10.9979C21.5503 10.48 21.1285 10.062 20.6106 10.0644L12.2676 10.1029Z" fill="#FEF9F9"/>
</g>
<defs>
<clipPath id="clip0_7_759">
<rect width="15" height="15" fill="white" transform="translate(0.727783 11.0928) rotate(-45.2611)"/>
</clipPath>
</defs>
</svg>
