<svg viewBox="0 0 28 28" fill="none" xmlns="http://www.w3.org/2000/svg">
<circle cx="14" cy="14" r="14" fill="#04ADF5"/>
<path fill-rule="evenodd" clip-rule="evenodd" d="M20.3782 7.616C18.6856 5.93 16.4353 5.00075 14.0381 5C9.09814 5 5.07762 9.0005 5.07536 13.919C5.07467 15.3503 5.41697 16.7505 6.0704 18.0109C6.19384 18.2491 6.232 18.5242 6.16082 18.7828L5.45988 21.3292C5.25554 22.0716 5.93166 22.7567 6.67667 22.5622L9.36824 21.8594C9.614 21.7952 9.87389 21.8292 10.1023 21.9404C11.321 22.5338 12.6666 22.8448 14.0335 22.8455H14.0373C18.9765 22.8455 22.9977 18.8443 23 13.9258C23.0015 11.543 22.07 9.30125 20.3782 7.616ZM14.0381 21.3387H14.035C12.6981 21.3387 11.3876 20.981 10.2436 20.3052V20.3052C10.0695 20.2025 9.86157 20.1735 9.66594 20.2245L8.82862 20.443C8.08368 20.6374 7.40769 19.9524 7.61194 19.2101L7.81716 18.4643C7.87322 18.2606 7.84088 18.0427 7.72807 17.864V17.864C6.982 16.6835 6.58861 15.3193 6.58937 13.919C6.59087 9.8315 9.93314 6.506 14.0418 6.506C16.0314 6.506 17.9018 7.2785 19.3081 8.6795C20.7143 10.0813 21.4883 11.9435 21.4875 13.9243C21.4852 18.0133 18.1437 21.3387 14.0381 21.3387ZM18.1241 15.7865C17.9003 15.6747 16.7993 15.1355 16.5936 15.0612C16.3886 14.987 16.2394 14.9495 16.0894 15.1722C15.9394 15.395 15.5114 15.8975 15.3802 16.0468C15.2499 16.1953 15.1187 16.214 14.8949 16.1023C14.6711 15.9905 13.9491 15.7558 13.0938 14.996C12.4283 14.405 11.9784 13.6753 11.8481 13.4518C11.7177 13.2283 11.8345 13.1083 11.946 12.9973C12.047 12.8975 12.1699 12.737 12.2821 12.6065C12.3952 12.4775 12.4321 12.3845 12.5075 12.2353C12.5821 12.0868 12.5452 11.9563 12.4886 11.8445C12.4321 11.7335 11.9845 10.6363 11.7983 10.19C11.6167 9.755 11.4321 9.81425 11.2942 9.8075C11.1638 9.80075 11.0146 9.8 10.8646 9.8C10.7154 9.8 10.4727 9.8555 10.2677 10.079C10.0628 10.3025 9.48399 10.8418 9.48399 11.9383C9.48399 13.0355 10.2866 14.0952 10.3981 14.2437C10.5096 14.3922 11.9769 16.6438 14.2234 17.609C14.7578 17.8385 15.1753 17.9757 15.5001 18.0785C16.0366 18.248 16.525 18.224 16.9108 18.167C17.3411 18.1032 18.2357 17.6277 18.4226 17.1072C18.6095 16.5867 18.6095 16.1397 18.5529 16.0475C18.4972 15.9537 18.348 15.8982 18.1241 15.7865Z" fill="#FFFDFD"/>
</svg>
