<svg viewBox="0 0 24 24" fill="none" xmlns="http://www.w3.org/2000/svg">
<path d="M24 19C24 19.553 23.553 20 23 20V21C23 21.553 22.553 22 22 22C21.447 22 21 21.553 21 21V17C21 16.447 21.447 16 22 16C22.553 16 23 16.447 23 17V18C23.553 18 24 18.447 24 19ZM8 16C7.447 16 7 16.447 7 17V18C6.447 18 6 18.447 6 19C6 19.553 6.447 20 7 20V21C7 21.553 7.447 22 8 22C8.553 22 9 21.553 9 21V17C9 16.447 8.553 16 8 16ZM19 14C18.447 14 18 14.447 18 15V18H12V15C12 14.447 11.553 14 11 14C10.447 14 10 14.447 10 15V23C10 23.553 10.447 24 11 24C11.553 24 12 23.553 12 23V20H18V23C18 23.553 18.447 24 19 24C19.553 24 20 23.553 20 23V15C20 14.447 19.553 14 19 14ZM20 10C20 10.726 19.918 11.432 19.772 12.113C19.524 12.047 19.269 12 19 12C17.346 12 16 13.346 16 15V16H14V15C14 13.346 12.654 12 11 12C9.691 12 8.588 12.847 8.179 14.018C8.119 14.014 8.062 14 8 14C6.428 14 5.134 15.216 5.01 16.757C4.61 17.112 4.32 17.58 4.155 18.102C1.641 16.285 0 13.338 0 10C0 4.477 4.477 0 10 0C15.523 0 20 4.477 20 10ZM11 6C11 5.447 10.553 5 10 5C9.447 5 9 5.447 9 6V9H7C6.447 9 6 9.447 6 10C6 10.553 6.447 11 7 11H10C10.553 11 11 10.553 11 10V6Z" fill="white"/>
</svg>
