<svg width="91" height="60" viewBox="0 0 91 60" fill="none" xmlns="http://www.w3.org/2000/svg">
<path d="M74.6828 13.8721C76.207 12.025 77.7503 10.1953 79.3393 8.40302C79.5875 8.12306 79.8916 7.83216 80.1905 7.53612C80.4917 7.96666 80.8267 8.39206 81.0277 8.7495C81.5144 9.6135 81.965 10.4951 82.3597 11.4044C82.641 12.0498 82.8464 12.8217 83.1417 13.4869C81.172 13.5761 79.2016 13.6653 77.232 13.7559C76.3823 13.7946 75.5326 13.8327 74.6828 13.8721ZM53.5129 30.9474C49.6395 37.0517 45.8688 43.6742 40.3088 48.4547C35.1308 52.9062 29.0287 54.4939 22.2836 53.5612C15.6669 52.646 5.35364 49.1454 7.42373 40.5566C8.04592 37.9741 10.9307 35.8543 12.8521 34.1768C25.8316 22.8432 43.8623 21.4113 60.4831 20.6679C58.0604 24.0259 55.7314 27.4497 53.5129 30.9474ZM83.7322 0.883624C80.1552 -1.26467 76.7924 0.850734 74.3485 3.52752C71.7339 6.38924 69.226 9.35038 66.7959 12.3671C66.2842 13.0037 65.7913 13.655 65.287 14.299C65.1932 14.3027 65.1006 14.3078 65.0068 14.3122C48.8438 15.046 30.7234 15.3026 17.3262 25.4074C11.6557 27.2721 6.04726 29.8159 2.66821 34.8836C-1.16643 40.6319 -1.01093 47.6572 4.06803 52.6226C9.13111 57.572 17.1815 59.433 24.0545 59.9198C31.4577 60.4439 38.6661 58.3987 44.4959 53.7936C50.469 49.0775 54.651 42.5762 58.6593 36.2366C62.1187 30.7624 65.7505 25.4184 69.6494 20.2512C71.3745 20.1737 73.099 20.0962 74.8235 20.0166C76.6761 19.9325 78.5279 19.8477 80.3805 19.7644C82.4436 19.6694 84.7329 19.8148 86.7482 19.3361C88.6501 18.885 90.2943 17.6885 90.837 15.7814C91.3347 14.0322 90.5947 12.218 89.9335 10.6171C89.2575 8.98345 88.4851 7.37457 87.617 5.83297C86.623 4.06842 85.5222 1.9596 83.7322 0.883624Z" fill="#FFC444"/>
</svg>
