<svg width="53" height="96" viewBox="0 0 53 96" fill="none" xmlns="http://www.w3.org/2000/svg">
<path d="M43.8018 21.8506C40.35 29.8329 35.7536 37.1934 31.5148 44.7453C30.0243 47.4006 28.0122 49.7631 26.2906 52.2941C20.8341 60.3201 16.2314 68.8186 12.504 77.7643C12.0396 78.8789 11.5848 79.9993 11.0558 81.086C10.5703 82.0826 9.82132 82.988 9.38443 83.9931C9.05966 84.7389 9.07607 85.6586 8.83223 86.4451C8.64816 87.0371 8.435 87.6202 8.1917 88.1907C8.06211 88.4957 7.44591 89.3601 7.48928 89.6587C6.38858 81.9804 5.44233 74.2799 4.65105 66.5636C4.25171 62.6667 3.89151 58.7657 3.57098 54.8614C3.43346 53.1885 2.9405 51.1368 3.30599 49.4881C3.69105 47.7541 3.58632 45.9752 3.75505 44.2033C4.18454 39.7044 5.22388 35.2838 6.59433 30.9823C7.04657 29.5637 7.92353 28.3267 9.11996 27.3307C9.94668 26.6424 10.8062 25.5041 11.8307 26.1163C12.6939 26.6323 13.2192 27.7855 13.1959 29.0676C13.1023 34.1047 12.5231 39.1141 12.3374 44.1348C12.1952 48.0016 11.9048 51.8616 11.5694 55.7169C11.4012 57.6432 11.2225 59.5679 11.0437 61.4931C10.9437 62.574 10.1762 65.243 12.0153 65.3089C12.5723 65.33 13.0927 65.0571 13.5735 64.7769C14.4701 64.2533 15.3544 63.6554 15.9532 62.8095C16.4673 62.082 16.5366 61.3646 16.6138 60.5113C16.6646 59.944 16.8873 59.4315 17.0634 58.8942C19.7234 50.7744 23.0514 42.937 26.2022 35.0003C29.0674 27.7855 32.4737 20.8294 36.263 14.0584C38.595 9.89413 41.7712 6.47002 45.7715 3.83509C46.4591 3.3824 47.2911 2.55441 48.0607 3.09643C48.7351 3.57166 48.5262 4.67119 48.4098 5.49449C47.6095 11.1501 46.0772 16.5872 43.8018 21.8506ZM52.9718 7.59958C52.9591 7.30686 52.9422 7.01441 52.9221 6.72176C52.8591 5.8442 52.8089 4.91897 52.6164 4.05895C52.4392 3.26941 51.6484 1.98373 51.0724 1.55296C49.5719 0.432733 47.2097 -0.422226 45.4129 0.221667C42.974 1.09701 40.6927 2.36341 38.8066 4.13749C36.1879 6.60224 34.2414 9.59115 32.1685 12.531C29.4255 16.4213 27.6917 20.7771 25.6246 24.9198C23.5629 29.0528 21.2731 33.1788 20.0439 37.7872C18.975 41.7932 17.5796 45.6687 16.2145 49.5861C16.5985 45.9473 16.9814 42.3062 17.2083 38.6542C17.3221 36.8303 17.3961 35.0041 17.4114 33.1765C17.4183 32.2921 17.339 31.386 17.3903 30.5047C17.4612 29.323 17.5707 28.5488 17.0465 27.3088C16.6731 26.4247 15.9981 25.8076 15.3063 25.1663C13.7967 23.7681 11.4356 23.1598 9.42463 23.5074C8.82112 23.6118 8.2594 23.7985 7.74581 24.0752C6.32511 24.8412 5.23446 26.2096 4.41515 27.8697C2.10215 32.5488 0.941149 37.8056 0.301675 42.9842C-0.227782 47.2689 0.00653511 51.6578 0.489975 56.0334C1.24846 62.9064 1.11834 69.8442 1.89534 76.7524C2.23967 79.816 2.86275 82.8405 3.25786 85.8983C3.65773 88.9929 3.53502 92.2008 3.68312 95.3318C4.8658 95.5283 6.04742 95.7253 7.23011 95.9223C7.68234 95.9971 8.16736 96.0692 8.5831 95.877C9.03481 95.6689 9.29769 95.2022 9.53094 94.7639C13.3064 87.6734 17.083 80.5819 20.8585 73.4913C23.1387 69.2078 25.4199 64.9249 27.7012 60.6414C28.3761 59.3735 28.8849 58.4227 29.81 57.4198C31.0435 56.0803 31.949 54.2472 32.9439 52.7244C35.048 49.5013 37.1294 46.2623 39.1409 42.9812C41.1027 39.7835 43.001 36.5446 44.7877 33.2463C45.7186 31.5287 46.6188 29.7941 47.4831 28.0426C48.2998 26.386 49.2778 24.67 49.8183 22.9071C50.3494 21.1802 51.2184 19.5485 51.7309 17.7933C52.2768 15.9277 52.6486 14.0114 52.8422 12.0782C52.9914 10.591 53.0353 9.09321 52.9718 7.59958Z" fill="#FFC444"/>
</svg>
