<svg width="113" height="120" viewBox="0 0 113 120" fill="none" xmlns="http://www.w3.org/2000/svg">
<path d="M94.1773 83.6158C98.1993 84.5637 102.221 85.52 106.243 86.4762C99.6582 91.964 91.6925 95.901 83.2136 97.1681C73.4306 98.6329 64.2149 95.5999 55.8561 90.6284C53.7227 89.3626 51.6619 87.9753 49.6313 86.5538C60.913 89.2851 72.3507 91.3611 83.8765 92.7394C84.9763 92.8686 85.6489 91.8347 85.3662 90.8358C85.0309 89.6553 83.8643 88.8625 82.7016 88.7248C70.491 87.2607 58.3941 85.003 46.4765 81.97C61.2984 75.1383 78.9359 79.9889 94.1773 83.6158ZM16.7286 69.8915C12.3694 61.018 9.07839 51.5668 7.06898 41.8662C6.11632 37.283 5.45593 32.6308 5.04673 27.961C11.6255 30.744 17.1571 35.5339 21.3828 41.3751C27.1945 49.4048 30.1135 59.1655 31.149 68.9611C31.5056 72.3211 31.6456 75.7069 31.6347 79.0843C26.2983 69.1853 21.7489 58.8728 18.0603 48.2327C17.2965 46.0273 12.6167 46.9145 13.473 49.3873C17.6993 61.5782 23.0504 73.3465 29.4306 84.5468C23.2585 82.401 19.4588 75.4575 16.7286 69.8915ZM63.4857 33.2769C67.5546 23.2655 74.3884 14.5037 83.7281 8.98171C87.7437 6.61228 92.1351 5.00984 96.7077 4.28615C93.7366 13.8834 90.5979 23.4296 87.2658 32.9151C85.5654 37.7483 84.0037 42.7365 81.6545 47.3112C79.5089 51.4808 76.4421 54.8066 72.5197 57.3479C69.0938 59.5706 65.3345 61.1556 61.5322 62.612C68.7668 51.5325 75.4259 40.0828 81.4476 28.2886C82.6759 25.885 78.0854 24.5494 76.9516 26.7721C71.2812 37.8775 65.0525 48.6895 58.2888 59.1571C58.6556 50.3094 60.1504 41.4869 63.4857 33.2769ZM55.2368 68.66C55.5541 68.3583 55.9126 68.0998 56.2691 67.8756C57.1627 67.3328 58.1988 67.0227 59.2427 66.9884C60.3528 66.9626 60.9926 67.2294 62.0474 66.8075C63.9168 66.058 65.8035 65.3685 67.6523 64.5589C71.3075 62.9739 74.8786 61.1039 78.0372 58.6486C80.5496 56.6933 82.769 54.3672 84.5016 51.6876C87.3043 47.3455 88.9405 42.3747 90.6634 37.5324C92.5829 32.1397 94.4445 26.7379 96.2464 21.3012C98.295 15.1331 100.268 8.93002 102.167 2.70955C102.704 0.943623 101.062 -0.0734028 99.4796 0.00413502C88.0167 0.590192 77.38 6.47466 69.6302 14.8138C61.5624 23.4897 56.9346 34.7501 54.8436 46.3291C53.785 52.2045 53.3777 58.1665 53.4246 64.1279C48.2476 70.8996 42.2444 76.9733 36.3409 83.1331C36.7327 73.0964 35.9059 62.939 32.6644 53.4018C29.6272 44.4591 24.2838 36.2918 16.9194 30.3647C12.9745 27.1941 8.41415 24.7478 3.55189 23.3521C2.3262 22.9986 -0.111659 23.2487 0.00397193 25.0747C0.668847 35.6715 2.71165 46.1908 6.07264 56.2539C7.76406 61.3197 9.79143 66.2647 12.1407 71.0546C14.0235 74.8889 16.1177 78.705 18.9545 81.9274C22.0611 85.4515 26.0876 88.173 30.8259 88.7164C30.9024 88.7332 30.9839 88.7332 31.0636 88.7332C26.7808 93.403 22.7035 98.2362 19.2192 103.569C16.3625 107.937 13.9586 112.615 12.2704 117.569C11.5792 119.593 16.1511 121.067 16.852 119.008C21.4187 105.611 31.009 95.2296 40.6879 85.1749C40.8941 85.1407 41.0952 85.0715 41.2763 84.9423C41.3425 84.8997 41.4093 84.8564 41.4748 84.8131C49.4996 90.8442 57.8571 96.8314 67.5379 99.7959C77.6967 102.897 88.4073 101.674 97.986 97.2456C103.406 94.7469 108.303 91.2578 112.63 87.1392C113.851 85.9761 111.746 83.9776 110.703 83.7282C100.807 81.3762 90.9332 78.8433 80.9774 76.7498C71.6088 74.7939 61.9196 73.5707 52.4328 75.4575C51.3388 75.6726 50.2537 75.9395 49.1777 76.2497C49.355 76.0519 49.5362 75.862 49.7116 75.6727C51.3966 73.8292 53.3912 72.0458 54.4235 69.7623C54.6098 69.3488 54.8995 68.9786 55.2368 68.66Z" fill="#FFC444"/>
</svg>
