<svg width="262" height="147" viewBox="0 0 262 147" fill="none" xmlns="http://www.w3.org/2000/svg">
<g clip-path="url(#clip0_189_311)">
<path d="M62.9675 25.0582V20.8409C65.6464 20.2592 72.6255 20.0167 75.78 19.9683C82.8852 19.7356 87.3793 21.1317 88.7381 21.8589V23.4586C88.6217 25.32 87.7189 26.0762 87.2823 26.2216C84.4868 26.2216 81.2642 25.9308 80.0024 25.7854L79.8568 58.07H71.9946L71.7033 26.2216L62.9675 25.0582Z" fill="white"/>
<path d="M95.4356 33.4929C91.7084 25.9308 91.2619 21.6164 91.5045 20.4046L95.4356 20.6955C99.8618 20.9281 101.26 25.8339 101.405 28.2576C101.172 32.0969 103.929 35.4805 105.336 36.6923C106.385 35.9943 107.811 32.2326 108.394 30.439C109.093 26.3671 111.209 22.0527 112.179 20.4046H119.168C118.44 24.622 109.704 46.1451 107.375 51.5258C105.511 55.8304 103.783 57.3914 103.152 57.6337C98.959 60.1933 95.4841 58.7002 94.2708 57.6337C93.3389 55.656 94.6591 53.6103 95.4356 52.8347C98.5806 53.8818 100.143 52.3984 100.531 51.5258C102.046 50.0134 101.162 46.1451 100.531 44.4L95.4356 33.4929Z" fill="white"/>
<path d="M166.486 35.5289L166.195 20.1138C162.236 18.485 159.401 19.4352 158.479 20.1138C156.266 22.3243 156.392 30.3421 156.732 34.0746V38.4374L156.441 48.7626C156.091 54.347 157.266 57.9731 157.897 59.088H162.12C166.661 58.7389 167.216 55.5492 166.925 53.9981C166.341 49.5771 166.68 45.5634 166.925 44.109L177.115 43.8181V59.5242C181.192 60.3387 185.512 59.185 187.162 58.5063C186.114 53.7363 186.725 42.267 187.162 37.1286C188.093 25.8434 186.968 21.7618 186.288 21.1317C182.793 16.7108 179.009 19.1927 177.552 20.9863C176.271 24.9419 176.824 32.3295 177.261 35.5289H166.486Z" fill="white"/>
<path d="M220.067 38.292C220.3 35.1508 220.164 24.8643 220.067 20.1136C222.396 20.1136 227.23 20.2009 227.929 20.5499C228.627 20.899 228.511 28.4514 228.365 32.1841V58.2154L221.377 57.9246C219.485 53.4162 219.776 42.2186 220.067 38.292Z" fill="white"/>
<path d="M233.461 58.2154C232.53 54.8415 233.073 31.4084 233.461 20.1136L241.033 20.5499V41.3459C244.294 40.9968 247.537 32.1841 248.75 27.8213C251.546 20.6081 257.874 19.9682 260.688 20.5499C261.271 30.6716 261.222 45.1271 261.125 51.0894C261.125 54.9287 259.864 57.4398 259.233 58.2154H255.156C253.06 56.2377 253.021 50.217 253.263 47.4539C254.311 41.5204 253.409 37.9042 252.827 36.8377C249.798 38.5828 243.508 52.0105 240.742 58.5063L233.461 58.2154Z" fill="white"/>
<path d="M245.984 16.0418C240.859 15.5764 238.8 11.7759 238.412 9.93384C240.277 9.93384 242.683 10.9034 243.654 11.3881C246.683 13.4823 248.895 12.6485 249.623 11.9698C253.351 9.75933 256.029 9.49755 256.902 9.64299C251.517 16.4781 246.13 15.8963 245.984 16.0418Z" fill="white"/>
<path fill-rule="evenodd" clip-rule="evenodd" d="M32.6833 58.07L39.8174 58.2154L42.1471 50.217L51.4653 50.0716L54.3772 58.2154L61.366 58.5063C60.9776 55.7917 59.3275 47.512 55.8332 36.1106C54.2316 31.2146 51.0284 21.1607 51.0284 20.1138L42.1471 19.3866C42.1956 19.7744 42.2345 20.9572 42.0014 22.586C41.7685 24.2148 37.1483 39.7464 34.8672 47.3085C33.9451 49.9747 32.2173 55.8595 32.6833 58.07ZM44.6222 42.2186C44.2727 37.7976 45.9325 35.5289 46.8062 34.9472C48.5533 35.6452 49.2813 40.0856 49.427 42.2186C49.427 44.5454 47.8739 45.1271 47.0973 45.1271C45.2337 45.0108 44.6707 43.1397 44.6222 42.2186Z" fill="white"/>
<path fill-rule="evenodd" clip-rule="evenodd" d="M4.00049 19.8229V58.3609C10.067 60.3484 23.7144 61.7056 29.7713 51.235C30.3537 48.7142 30.8194 42.6549 28.0241 38.5828C27.5388 36.8862 23.8308 33.5511 12.8819 33.7838L12.2995 27.2396C13.9496 26.9004 18.3563 26.4253 22.7825 27.2396C24.2871 27.2881 27.296 26.9779 27.296 25.3491V20.1138C26.5681 19.5321 24.2094 18.4559 20.5985 18.8049L9.53318 19.8229H4.00049ZM12.1539 52.3984C11.688 47.6285 12.251 41.9763 12.5907 39.7464H17.1042C20.7151 39.7464 22.2001 42.558 22.4914 43.9637V47.3085C22.1419 51.3804 19.1426 52.3984 17.6866 52.3984H12.1539Z" fill="white"/>
<path fill-rule="evenodd" clip-rule="evenodd" d="M192.549 20.1136C192.112 20.8893 191.268 23.604 191.385 28.2576C191.501 32.9112 191.627 40.5704 191.676 43.8181C191.579 47.1145 191.501 54.6089 191.967 58.2154C197.597 58.8456 209.817 59.1171 213.661 55.1615C215.699 53.5618 219.136 48.7336 216.572 42.2186C215.893 39.6978 213.224 34.54 207.983 34.0746L202.159 33.9292L199.683 33.3475L199.392 19.5319L192.549 20.1136ZM199.537 52.5438V39.8916C209.205 39.8916 210.748 44.3514 210.312 46.5812C209.497 51.3513 202.79 52.5438 199.537 52.5438Z" fill="white"/>
<path d="M1.67093 64.7596C0.79735 71.8856 -0.687743 90.7037 0.360557 108.969L1.08857 139.8C0.797373 141.593 1.08857 145.151 4.5829 145.035C8.07723 144.919 12.3481 144.696 14.0467 144.599L14.6291 77.7026C20.2104 77.3632 31.8095 77.179 33.5567 79.1568V141.545C33.5082 142.854 34.0518 145.471 36.6143 145.471L45.6414 144.308C46.6032 121.67 47.8042 74.0668 44.9134 64.7596C34.3333 63.8385 10.8727 62.5491 1.67093 64.7596Z" fill="white"/>
<path fill-rule="evenodd" clip-rule="evenodd" d="M68.9369 64.7596C65.2485 78.3328 56.6484 113.041 51.7565 143.29C53.0183 143.726 56.5611 144.424 60.6379 143.726C62.2394 143.823 65.4135 142.301 65.297 135.437C65.5881 132.965 66.3744 127.787 67.1897 126.857L82.0408 127.148L86.1174 143.726L97.9108 144.017C94.2223 124.53 85.5933 81.3963 80.5847 64.7596H68.9369ZM75.6344 93.2633L74.0328 93.554C73.1011 94.0194 71.2179 107.903 70.3929 114.786H79.1287C79.5946 114.088 76.9934 100.147 75.6344 93.2633Z" fill="white"/>
<path fill-rule="evenodd" clip-rule="evenodd" d="M103.298 67.2318C102.715 86.7675 101.9 128.631 103.298 139.8C103.298 140.672 103.414 142.679 103.88 143.726C105.239 144.259 108.976 145.093 113.053 144.162C114.072 143.823 115.936 141.981 115.237 137.327V116.968L126.302 116.386C131.156 115.804 141.357 111.354 143.337 98.2076C144.551 93.3117 145.434 81.4546 139.26 73.1944C137.271 69.8495 129.738 63.3925 115.528 64.3233L106.21 64.7596C105.266 64.6627 103.362 65.0213 103.298 67.2318ZM115.091 104.316L115.819 77.4117C115.577 77.2178 116.78 76.859 123.536 76.9755C130.292 77.0918 131.786 83.6165 131.689 86.8644V95.4445C131.107 102.774 126.011 104.412 123.536 104.316H115.091Z" fill="white"/>
<path d="M151.345 65.7777V144.017H162.702C162.848 135.388 163.313 117.433 164.012 114.641C164.206 113.477 164.885 111.092 166.05 110.86C166.779 111.296 168.759 113.739 170.855 120.022C172.952 126.304 177.261 137.764 179.155 142.708C179.252 143.144 179.97 144.017 182.066 144.017H194.15C192.209 137.764 186.376 121.36 178.572 105.77C177.503 103.492 177.232 95.939 184.687 83.9559C187.404 79.1083 192.753 68.5698 192.403 65.196H179.155C177.115 68.6862 172.603 77.4407 170.855 84.5376C169.205 89.676 165.788 100.04 165.322 100.389C164.74 100.825 163.139 80.1749 164.012 69.8496C164.303 68.6377 164.536 66.0103 163.139 65.196L151.345 65.7777Z" fill="white"/>
<path d="M134.165 4.26231C133.931 6.47278 135.62 9.25527 136.494 10.3702C121.468 7.3278 116.159 8.5208 115.382 9.49759C114.334 14.5003 126.982 14.4906 133.437 13.8604C134.951 16.6525 134.067 20.2592 133.437 21.7134C127.962 21.597 127.661 26.7063 128.195 29.2756C129.01 37.7685 132.417 41.5399 134.019 42.3639C137.047 42.713 137.513 40.3765 137.368 39.1645L135.329 31.7478C136.931 31.7478 140.163 31.806 140.28 32.0387C142.493 35.0635 141.59 40.3765 140.862 42.6549C137.018 53.0092 141.784 54.2404 144.648 53.5618C147.676 48.9082 147.754 38.4374 147.414 33.7838C146.016 28.6648 146.055 21.0832 146.249 17.9324C146.249 13.046 150.326 12.7939 152.364 13.2787C161.8 16.5362 163.478 14.0543 163.139 12.4061C163.139 10.4283 158.382 9.93387 156.004 9.93387L143.774 10.3702L143.92 4.84401C143.92 0.423044 140.716 -0.197443 139.115 0.0449345C135.621 0.0449345 134.359 2.85652 134.165 4.26231Z" fill="#04ADF5"/>
<path d="M256.757 64.6143L205.798 64.0326C200.673 63.9739 197.839 66.238 197.063 67.3774L183.812 95.0084C181.833 98.1495 182.211 103.104 182.648 105.188C187.113 115.901 196.364 138.084 197.645 141.109C198.926 144.133 200.022 144.599 200.411 144.453H255.592C260.368 144.453 261.271 140.672 261.125 138.782C263.019 101.552 261.271 72.031 261.125 68.2498C261.009 65.225 258.165 64.5658 256.757 64.6143Z" fill="#04ADF5"/>
<path d="M203.692 117.81C202.761 113.272 203.304 94.8809 203.692 86.2522C206.37 86.2522 210.826 95.3657 212.72 99.9224C214.699 105.507 217.816 108.551 219.126 109.375C219.708 108.444 219.174 102.298 218.835 99.3407C217.903 93.4072 219.223 88.1428 219.999 86.2522C221.862 86.2522 223.203 86.8339 223.64 87.1248L223.349 120.427C219.97 120.195 216.019 114.029 214.466 110.975C211.321 104.343 208.982 101.91 208.206 101.522L207.478 120.427H205.148C204.333 120.195 203.838 118.585 203.692 117.81Z" fill="white"/>
<path d="M244.459 102.831C244.459 100.62 243.586 93.8629 243.149 90.7604C243.498 86.5722 246.692 86.5916 248.245 87.1248C249.06 88.4045 249.264 91.3421 249.264 92.6509C249.215 95.8503 249.147 104.227 249.264 112.138C249.38 120.049 247.372 121.445 246.353 121.154C244.954 121.038 244.507 118.973 244.459 117.955V114.319V102.831Z" fill="white"/>
<path fill-rule="evenodd" clip-rule="evenodd" d="M228.297 87.1248C227.424 89.791 225.939 96.2575 226.987 100.795C227.376 101.813 228.794 103.907 231.356 104.14C233.588 104.431 238.14 103.413 238.49 97.0137C238.781 94.0083 238.257 87.5029 233.83 85.5251C232.569 85.2828 229.696 85.2634 228.297 87.1248ZM234.268 97.0137C234.618 92.4766 233.636 90.1787 233.102 89.597C231.589 89.597 230.822 91.0513 230.628 91.7784C229.463 94.9195 230.337 98.5165 230.919 99.9224C231.851 100.388 233.539 99.7283 234.268 99.3407V97.0137Z" fill="white"/>
</g>
<defs>
<clipPath id="clip0_189_311">
<rect width="262" height="147" fill="white"/>
</clipPath>
</defs>
</svg>
