<svg width="90" height="80" viewBox="0 0 90 80" fill="none" xmlns="http://www.w3.org/2000/svg">
<path d="M44.2329 73.0513C24.3664 73.0513 8.30957 56.9487 8.30957 37.0256C8.30957 17.1026 24.3664 1 44.2329 1C64.0993 1 80.1562 17.1026 80.1562 37.0256C80.1562 56.9487 64.0993 73.0513 44.2329 73.0513Z" stroke="#04ADF5"/>
<path fill-rule="evenodd" clip-rule="evenodd" d="M15.5667 19.1539C15.7968 19.4872 15.5411 19.7693 15.4389 20.077C15.132 21.1795 14.4161 22.1026 13.6491 22.7693C12.7286 23.5642 12.5752 24.0513 13.419 24.8462C13.598 25.0257 13.7002 25.2308 13.8281 25.4103C13.8281 25.6154 13.9303 25.718 14.1093 25.7693C14.2116 25.8548 14.3053 25.9402 14.3906 26.0257C14.544 26.3847 14.7741 26.6154 15.1065 26.7949C15.4474 27.2907 15.7798 27.7864 16.1036 28.2821C16.2826 28.5129 16.5383 28.7437 16.3593 29.077C16.1803 29.4103 15.8224 29.3078 15.4644 29.3078C13.8025 29.3334 12.294 28.6411 10.7087 28.2821C10.223 28.1795 10.0695 28.2565 9.83943 28.5898C9.09795 29.6411 8.35647 30.6924 7.615 31.7437C7.41045 31.7693 7.23147 31.8719 7.1292 32.0513C5.64625 32.4616 4.98147 32.0257 4.72579 30.5898C4.57238 29.5898 4.64909 28.6411 4.75136 27.6667C4.82806 27.0257 4.52125 26.6924 4.03545 26.5385C2.91045 26.2052 1.93886 25.5129 0.762724 25.359C0.40477 25.3078 0.0979517 25.0257 0.0212471 24.6154C-0.0810256 24.1026 0.200224 23.6924 0.558179 23.5129C1.58091 22.9744 2.50136 22.1795 3.70307 22.0513C4.44454 21.9744 4.57238 21.5129 4.70022 20.8719C4.95591 19.5129 5.16045 18.1283 5.49284 16.7693C5.67181 16.0001 5.9275 15.7437 6.31102 15.7437C6.46443 15.7437 6.63488 15.7864 6.82238 15.8719C6.92466 15.9231 7.02693 15.9744 7.1292 16.0257C7.46159 16.6924 7.74284 17.4103 8.22863 18.0001C8.43318 18.359 8.63772 18.7095 8.84227 19.0513C8.91897 19.6154 9.14909 19.9231 9.76272 19.6667C10.1377 19.5984 10.5127 19.53 10.8877 19.4616C11.0752 19.4274 11.2627 19.3932 11.4502 19.359C11.6377 19.3419 11.8252 19.3248 12.0127 19.3078C12.3195 19.4103 12.6008 19.359 12.882 19.2052C13.4701 19.3078 14.0326 19.1795 14.5695 19.0257C14.9275 18.9231 15.311 18.7949 15.5667 19.1539ZM13.8536 20.4103C13.2144 20.4872 12.7031 20.5129 12.2173 20.5898C11.169 20.7693 10.1462 21.1539 9.04682 21.1795C8.58659 21.1795 8.33091 21.1795 8.20306 20.6411C8.15193 20.4018 8.07522 20.1795 7.97295 19.9744C7.66613 19.359 7.23147 18.7949 6.77125 18.2565C6.78829 18.2565 6.79681 18.2565 6.79681 18.2565C6.77977 18.2394 6.77125 18.2308 6.77125 18.2308C6.7542 18.1795 6.74568 18.1368 6.74568 18.1026C6.72863 18.1197 6.71159 18.1368 6.69454 18.1539C6.71159 18.171 6.73716 18.1966 6.77125 18.2308C6.77125 18.2308 6.77125 18.2394 6.77125 18.2565C6.10647 19.1795 6.23431 20.2821 6.25988 21.3334C6.25988 22.1026 5.97863 22.436 5.33943 22.7949C4.3167 23.359 3.16613 23.4872 2.09227 23.8719C1.88772 23.9488 1.60647 24.0001 1.60647 24.3078C1.60647 24.6154 1.88772 24.6154 2.11784 24.6924C3.24284 25.1368 4.35931 25.5898 5.46727 26.0513C6.25988 26.359 6.59227 26.9231 6.46443 27.8206C6.36216 28.6411 6.38772 29.5129 6.33659 30.359C7.23147 29.4616 7.97295 28.5385 8.56102 27.5385C8.99568 26.8206 9.48147 26.718 10.223 26.7693C11.4247 26.8462 12.473 27.4103 13.6747 27.5385C12.7542 26.7949 12.3707 25.6154 11.4502 24.9231C10.8366 24.4616 10.9389 24.077 11.3991 23.5898C12.294 22.6667 13.1122 21.6667 13.8536 20.4103Z" fill="#FFD600"/>
<path fill-rule="evenodd" clip-rule="evenodd" d="M89.77 64.8974C89.8978 65.4102 89.7444 65.923 89.6165 66.4102C89.4376 66.9486 89.2586 67.4871 88.9262 67.923C88.5682 68.4615 88.0058 68.923 87.4433 69.205C86.7785 69.5384 86.2415 69.8461 85.5001 69.9486C85.1421 69.9743 84.7842 70.0256 84.4262 69.9486C84.2217 69.8974 83.787 69.7179 83.6336 69.923C83.6847 70.1025 83.8637 70.282 83.966 70.4358C84.0512 70.5726 84.1279 70.7093 84.1961 70.8461C84.3836 71.1538 84.5455 71.4786 84.6819 71.8204C84.9887 72.4871 85.2444 73.1538 85.5768 73.8204C86.216 75.1281 85.5768 76.4102 84.7842 77.5384C84.733 78.1538 84.145 78.3589 83.787 78.5384C83.4035 78.7179 83.0711 78.923 82.6876 79.0768C82.2273 79.3076 81.716 79.4358 81.2046 79.3333C80.77 79.2307 80.3097 79.3589 79.8495 79.2563C78.9035 79.0512 78.0853 78.4358 77.5484 77.6409C77.1648 77.0512 76.9092 76.3845 76.8069 75.6922C76.7387 75.3332 76.7046 74.9828 76.7046 74.6409C76.7046 74.4871 76.7558 74.282 76.7046 74.1281C76.6535 73.7692 76.3722 74.3845 76.3211 74.4871C76.27 74.5726 76.2188 74.658 76.1677 74.7435C75.7075 75.4358 74.8893 75.6666 74.1734 75.923C73.1506 76.3333 72.1023 76.7179 71.0029 76.8974C70.4916 76.9999 69.9546 76.923 69.4433 77.0512C69.0086 77.1538 68.5995 77.0768 68.1648 76.923C67.6279 76.7691 67.1165 76.4871 66.7075 76.1281C66.6308 76.0512 66.5796 75.9743 66.5029 75.923C66.2472 75.7435 66.0427 75.6409 65.9404 75.3333C65.8126 75.0256 65.8126 74.7179 65.787 74.3845C65.7614 73.5384 65.7359 72.6666 65.966 71.8461C66.4773 70.1025 68.1393 68.8461 69.9035 68.4871C69.0342 68.5127 68.1137 68.5384 67.2444 68.282C66.554 68.0512 65.9148 67.5897 65.5569 66.9486C65.4802 66.7948 65.4546 66.6409 65.429 66.4871C65.429 66.282 65.3523 66.1025 65.2756 65.923C65.0711 65.4871 64.8666 65.0768 64.7131 64.6409C64.483 63.9999 64.3552 63.3333 64.483 62.6409C64.7898 60.564 65.6336 59.0768 67.4745 58.8204C68.7529 58.6666 70.0569 58.8204 71.2586 59.282C71.8467 59.4871 72.0512 59.564 72.0768 58.7692C72.2302 56.282 73.2529 54.282 75.5029 53.0768C76.4489 52.564 78.2131 53.4358 78.7501 54.564C79.1847 55.5127 79.9262 56.2563 80.2075 57.282C80.3353 57.8204 80.7444 57.4871 81.0256 57.282C81.9717 56.5897 83.0711 56.3076 84.1961 56.5384C86.2671 56.923 87.3154 58.9486 86.5484 60.9999C86.3183 61.6666 86.1904 62.3845 85.6535 62.8717C85.4489 63.0768 85.1933 63.2307 84.9376 63.3333C85.8325 63.1538 86.7529 63.1538 87.6734 63.3333C87.9802 63.4102 88.287 63.5127 88.5683 63.6409C89.1308 63.8974 89.6165 64.3076 89.77 64.8974ZM88.1336 65.4102C86.4461 64.923 84.7586 64.1538 82.9433 64.9999C82.5597 65.1794 82.1762 65.1794 81.9972 64.6666C81.9461 64.5127 81.895 64.3845 81.716 64.4102C81.5114 64.4358 81.3325 64.4615 81.3325 64.205C81.3069 63.9743 81.4092 63.7948 81.6393 63.6922C82.1251 63.4871 82.5597 63.1538 83.02 63.1281C85.3211 62.5127 85.6023 61.564 85.6023 59.8974C85.6279 59.282 85.3211 58.8974 84.7842 58.6153C83.3779 57.8461 80.8211 58.6409 79.9518 60.0512C79.7217 60.4615 79.5938 61.3589 78.9802 61.0512C78.3665 60.7948 78.7756 59.9743 78.9802 59.5384C79.4404 58.6153 79.1336 57.8461 78.6989 57.0768C78.4433 56.6153 78.1364 56.1794 77.8296 55.7179C77.2415 54.7948 76.3978 54.5127 75.4006 54.9486C74.0967 55.5127 73.4319 56.564 73.3552 57.9486C73.2785 58.9486 73.662 59.7692 74.2245 60.5127C74.6592 61.1281 74.3268 61.6409 73.9944 62.1538C73.7643 62.4871 73.5086 62.4615 73.2273 62.2307C71.9489 61.2307 70.4148 60.8974 68.8808 60.5384C67.27 60.1538 65.7359 61.0512 65.608 62.4358C65.4802 63.923 66.8097 65.9486 68.1904 66.4871C69.4177 66.9743 70.7472 67.0256 72.0256 67.282C72.4092 67.3589 72.9461 67.3333 73.0484 67.8204C73.1762 68.3333 72.7671 68.7179 72.4603 69.0768C72.358 69.205 72.1535 69.2563 72.0001 69.3076C71.0029 69.5897 70.0058 69.8974 68.983 70.1281C68.2927 70.3076 67.7813 70.6409 67.6279 71.3845C67.4745 72.0768 67.2955 72.7692 67.3467 73.4871C67.4234 74.564 67.9092 74.9743 68.983 75.0512C70.2359 75.1281 71.3609 74.6153 72.5626 74.4871C74.1478 74.3076 75.3495 73.4102 76.4234 72.3076C76.4915 72.2392 76.5597 72.1794 76.6279 72.1281C77.1648 71.6409 77.5739 71.7692 77.8296 72.4358C78.1364 73.2563 78.0342 74.1281 78.162 74.9743C78.2898 76.0256 78.5455 76.9486 79.7984 77.2307C81.358 77.5897 82.8154 77.4102 84.145 76.5127C84.6308 76.1794 85.0143 75.6409 84.6819 75.0512C83.8126 73.4615 83.7103 71.4358 81.9461 70.3589C81.4092 70.0256 81.4603 69.4615 81.6137 68.8974C81.7416 68.3589 82.1506 68.205 82.6109 68.1538C83.3268 68.0768 84.0427 68.0768 84.733 67.9999C85.9859 67.8461 87.2387 67.6922 88.2359 66.8204C88.8239 66.2563 88.7984 65.5897 88.1336 65.4102Z" fill="#FFD600"/>
</svg>
