<svg width="93" height="92" viewBox="0 0 93 92" fill="none" xmlns="http://www.w3.org/2000/svg">
<path d="M63.9121 43.9113C61.3421 46.6183 60.8421 48.8002 64.1821 51.3162C69.3521 55.2112 71.4721 61.7772 76.6721 65.9062C69.9821 65.1823 64.0221 62.1232 57.4121 61.6212C53.1821 61.2982 50.4421 61.9873 48.0921 65.9713C44.7721 71.5773 40.5621 76.6462 35.5221 81.6602C35.7721 76.9252 35.7521 72.1582 36.3321 67.4642C36.9321 62.5632 35.0721 59.4112 30.6721 57.6072C24.4121 55.0412 18.1421 52.5182 11.8421 50.0582C10.6221 49.5822 9.0221 49.5573 9.0521 47.8353C9.0821 46.2223 10.6421 45.8453 11.8221 45.4343C17.8321 43.3343 24.2021 42.5232 29.9721 39.3712C33.6121 37.3832 35.1421 35.5692 35.0721 31.1832C34.9821 25.4392 34.1921 19.2802 38.0321 14.1102C38.0021 14.0832 37.9821 14.0562 37.9621 14.0292C37.9521 13.9702 37.9521 13.9112 37.9421 13.8522C37.8021 13.7412 37.6521 13.6323 37.5121 13.5233C37.6321 13.4163 37.752 13.3112 37.872 13.2042C37.902 13.4202 37.9221 13.6362 37.9421 13.8522C38.0021 13.8942 38.0522 13.9382 38.1122 13.9802C38.0822 14.0222 38.0621 14.0682 38.0321 14.1102C40.5421 17.1052 43.0521 20.1462 44.6821 23.6572C45.2321 24.8392 45.682 26.0712 46.002 27.3752C46.712 30.3242 48.1521 30.4392 50.7621 30.3972C56.9021 30.2982 62.5921 28.1003 68.5221 27.1303C71.2721 26.6813 74.0621 26.4632 77.7121 26.0352C73.5721 33.1322 68.9121 38.6643 63.9121 43.9113ZM81.7221 18.3422C78.6321 19.1732 75.5121 19.8713 72.2721 19.3953C70.7121 20.2173 69.0921 20.4312 67.3921 19.9202C66.3121 20.0242 65.2321 20.1253 64.1521 20.2283C63.1221 20.4363 62.0921 20.6473 61.0621 20.8533C58.9621 21.2283 56.852 21.6022 54.752 21.9772C51.372 23.3442 50.0721 21.6082 49.6521 18.5632C48.4721 16.5832 47.2821 14.6012 46.0921 12.6212C43.3921 9.30822 41.8722 5.33422 39.9822 1.57422C39.3822 1.26122 38.8121 0.984275 38.2721 0.754275C37.2021 0.298275 36.2621 0.0222232 35.4121 0.0012232C33.3121 -0.0497768 31.8821 1.48824 30.8321 5.70124C28.9421 13.3222 27.8021 21.0332 26.3121 28.6882C25.6221 32.2172 24.9621 34.7912 20.7221 35.2792C14.0421 36.0432 8.86206 40.4343 3.14206 43.4313C1.18206 44.4583 -0.427856 46.7303 0.102144 49.5543C0.532144 51.8993 2.27216 53.4092 4.24216 53.6882C10.8822 54.6302 16.4121 58.4883 22.6821 60.3723C25.3221 61.1663 27.1021 63.1153 26.6721 66.6483C26.0221 72.0383 25.6321 77.4472 26.5721 82.9482C27.9521 90.9822 31.6522 93.4653 39.9822 91.2003C40.6222 90.1373 41.6021 89.6292 42.7821 89.4323V89.4302C46.9021 83.5772 51.062 77.7493 55.122 71.8563C56.412 69.9743 57.3421 69.5513 60.0521 70.1403C68.9521 72.0723 77.4521 75.9543 86.8021 75.8953C88.7221 75.8843 90.7121 76.4042 91.8121 74.4982C92.8121 72.7512 91.322 71.4013 90.372 70.0463C88.472 67.3053 86.5921 64.5453 84.7021 61.7933C82.9121 60.8253 81.5121 59.4872 80.7621 57.5552C80.2221 57.0522 79.6821 56.5493 79.1421 56.0493C78.1521 55.7753 77.6122 55.1483 77.6122 54.1033C76.8422 53.0443 76.2121 51.8362 75.2721 50.9512C70.5021 46.4342 71.4322 43.6912 76.4922 39.2952C80.8222 35.5352 84.8121 30.3262 86.6521 24.2632C87.1621 22.5682 88.6021 20.8702 87.3521 19.1212C85.8721 17.0572 83.7621 17.7912 81.7221 18.3422Z" fill="#FFC444"/>
</svg>
